<?xml version="1.0" encoding="utf-8"?>
<!-- Generator: Adobe Illustrator 19.0.0, SVG Export Plug-In . SVG Version: 6.00 Build 0)  -->
<svg version="1.1" id="Слой_1" xmlns="http://www.w3.org/2000/svg" xmlns:xlink="http://www.w3.org/1999/xlink" x="0px" y="0px"
	 viewBox="0 0 406.5 476.8" style="enable-background:new 0 0 406.5 476.8;" xml:space="preserve">
<style type="text/css">
	.st0{fill:#E84239;}
	.st1{font-family:'Roboto-Regular';}
	.st2{font-size:22px;}
	.st3{fill:#010202;}
	.st4{fill:none;stroke:#E84239;stroke-width:2;stroke-miterlimit:10;}
	.st5{fill:#595A5C;}
	.st6{font-size:20px;}
</style>
<text transform="matrix(1 0 0 1 2.4937 435.5553)" class="st0 st1 st2">vision</text>
<g>
	<g>
		<g>
			<path class="st3" d="M287.1,230.9H117.2c-6.6,0-11.9-5.4-11.9-11.9v-98.8c0-6.6,5.3-11.9,11.9-11.9h169.9
				c6.6,0,11.9,5.3,11.9,11.9V219C299,225.6,293.7,230.9,287.1,230.9z M117.2,112.2c-4.4,0-8,3.6-8,8V219c0,4.4,3.6,8,8,8h169.9
				c4.4,0,8-3.6,8-8v-98.8c0-4.4-3.6-8-8-8H117.2z"/>
		</g>
		<path class="st3" d="M288.2,220.6h-172c-0.5,0-1-0.4-1-1v-99.9c0-0.5,0.4-1,1-1h172c0.5,0,1,0.4,1,1v99.9
			C289.2,220.1,288.7,220.6,288.2,220.6z M117.1,218.6h170.1v-98H117.1L117.1,218.6L117.1,218.6z"/>
	</g>
	<g>
		<path class="st3" d="M320.6,288.6H83.4c-6.3,0-10.7-1.5-12-4.1c-0.4-0.8-0.9-2.5,0.6-4.4l34.6-46.2c2.6-3.5,9.2-6.2,15.1-6.2
			h160.7c5.8,0,12.5,2.7,15.1,6.2l34.6,46.2c1.4,1.9,1,3.6,0.6,4.4C330.7,288.2,323.6,288.6,320.6,288.6z M121.6,231.6
			c-4.6,0-10,2.1-11.9,4.6l-34.6,46.2c-0.1,0.2-0.2,0.3-0.2,0.4c0.2,0.5,2.6,1.9,8.5,1.9h237.2c5.9,0,8.3-1.5,8.5-2l0,0
			c0,0-0.1-0.1-0.2-0.3l-34.6-46.2c-1.9-2.5-7.3-4.6-11.9-4.6L121.6,231.6L121.6,231.6z"/>
	</g>
	<path class="st3" d="M224.8,207.4h-45.2c-0.5,0-1-0.4-1-1c0-0.5,0.4-1,1-1h45.2c0.5,0,1,0.4,1,1C225.8,207,225.3,207.4,224.8,207.4
		z"/>
	<g>
		<path class="st3" d="M201.8,181.7c0.5,0,1,0.4,1,1v16.9c0,0.5-0.4,1-1,1c-0.5,0-1-0.4-1-1v-16.9
			C200.8,182.1,201.3,181.7,201.8,181.7z"/>
		<path class="st3" d="M201.8,181.7c0.3,0,0.5,0.1,0.7,0.3l5.6,5.6c0.4,0.4,0.4,1,0,1.4s-1,0.4-1.4,0l-4.9-4.9l-5,4.9
			c-0.4,0.4-1,0.4-1.4,0s-0.4-1,0-1.4l5.6-5.6C201.3,181.8,201.6,181.7,201.8,181.7z"/>
	</g>
	<path class="st3" d="M309.2,267.9H96c-0.4,0-0.7-0.2-0.9-0.5c-0.2-0.3-0.1-0.7,0.1-1l19.4-28.5c0.2-0.3,0.5-0.4,0.8-0.4h174.3
		c0.3,0,0.6,0.2,0.8,0.4l19.4,28.5c0.2,0.3,0.2,0.7,0.1,1C309.9,267.7,309.5,267.9,309.2,267.9z M97.9,266h209.4l-18-26.6H116
		L97.9,266z"/>
	<g>
		<path class="st3" d="M216.3,179.3c-0.5,0-1.1-0.2-1.5-0.7c-0.2-0.2-4.5-4.9-13-4.9c-8.6,0-12.9,4.7-13,4.9
			c-0.7,0.8-1.9,0.9-2.8,0.2c-0.8-0.7-0.9-1.9-0.2-2.7c0.2-0.3,5.5-6.3,16-6.3c10.4,0,15.8,6,16,6.3c0.7,0.8,0.6,2-0.2,2.8
			C217.2,179.2,216.8,179.3,216.3,179.3z"/>
		<path class="st3" d="M222.4,172.1c-0.5,0-1.1-0.2-1.5-0.7c-0.2-0.2-6.5-6.9-19.1-6.9s-19,6.8-19.1,7c-0.7,0.8-2,0.9-2.8,0.2
			c-0.8-0.7-0.9-1.9-0.2-2.8c0.3-0.3,7.6-8.3,22-8.3c14.4,0,21.7,7.9,22,8.3c0.7,0.8,0.6,2-0.2,2.8
			C223.3,171.9,222.8,172.1,222.4,172.1z"/>
		<path class="st3" d="M228.4,164.8c-0.5,0-1.1-0.2-1.4-0.6c-0.1-0.2-8.6-9-25.2-9s-25,8.8-25.2,9c-0.7,0.8-2,0.9-2.8,0.1
			c-0.8-0.7-0.9-2-0.1-2.8c0.4-0.4,9.7-10.3,28.1-10.3s27.7,9.8,28.1,10.3c0.7,0.8,0.7,2-0.1,2.8
			C229.4,164.6,228.9,164.8,228.4,164.8z"/>
		<path class="st3" d="M234.5,157.5c-0.5,0-1-0.2-1.4-0.6c-0.1-0.1-10.7-11-31.2-11s-31.1,10.9-31.2,11c-0.7,0.8-2,0.8-2.8,0.1
			c-0.8-0.7-0.8-2-0.1-2.8c0.5-0.5,11.7-12.3,34.1-12.3c22.4,0,33.6,11.8,34.1,12.3c0.7,0.8,0.7,2-0.1,2.8
			C235.4,157.4,235,157.5,234.5,157.5z"/>
		<path class="st3" d="M240.5,150.3c-0.5,0-1-0.2-1.4-0.6c-0.1-0.1-12.7-13-37.3-13s-37.2,12.9-37.3,13c-0.7,0.8-2,0.8-2.8,0.1
			c-0.8-0.7-0.8-2-0.1-2.8c0.6-0.6,13.8-14.3,40.1-14.3s39.6,13.7,40.1,14.3c0.7,0.8,0.7,2-0.1,2.8
			C241.5,150.1,241,150.3,240.5,150.3z"/>
	</g>
	<g>
		<path class="st3" d="M320.6,297.2H83.4c-3.2,0-8.8-0.4-11.3-3.1c-0.8-0.9-1.2-2-1.1-3.2l0-7.8c0-0.2,0-0.4,0-0.6v-0.1
			c0-1.7,2.4-2.5,3.5-1.2c0.4,0.4,0.5,1,0.4,1.6v0.1c0.3,0.5,2.7,1.9,8.5,1.9h237.2c5.6,0,8.1-1.4,8.4-1.9v-0.2
			c-0.1-0.5,0.1-1.1,0.4-1.5c1-1.3,3.4-0.5,3.5,1.2c0,0.3,0,0.6,0,0.9v7.9c0.1,0.9-0.2,2-1.1,2.9
			C329.5,296.8,323.8,297.2,320.6,297.2z M74.9,287.3v3.8c0.2,0.7,2.6,2.2,8.5,2.2h237.2c5.8,0,8.3-1.5,8.5-2l0-4
			c-2.1,0.8-5,1.3-8.4,1.3H83.4C79.9,288.6,77,288.2,74.9,287.3z"/>
	</g>
</g>
<rect id="XMLID_1_" x="3" y="3.5" class="st4" width="400" height="400"/>
<text transform="matrix(1.0043 0 0 1 2.493 470.659)" class="st5 st1 st6">ditribute html experiance.</text>
<path class="st4" d="M39,32.4"/>
</svg>
