<?xml version="1.0" encoding="utf-8"?>
<!-- Generator: Adobe Illustrator 19.0.0, SVG Export Plug-In . SVG Version: 6.00 Build 0)  -->
<svg version="1.1" id="Слой_1" xmlns="http://www.w3.org/2000/svg" xmlns:xlink="http://www.w3.org/1999/xlink" x="0px" y="0px"
	 viewBox="0 0 306 369.5" style="enable-background:new 0 0 306 369.5;" xml:space="preserve">
<style type="text/css">
	.st0{fill:#E84239;}
	.st1{font-family:'Roboto-Regular';}
	.st2{font-size:22px;}
	.st3{fill:none;stroke:#E84239;stroke-width:2;stroke-miterlimit:10;}
	.st4{fill:#595A5C;}
	.st5{font-size:20px;}
</style>
<text id="XMLID_82_" transform="matrix(1 0 0 1 5.5532 332.4452)" class="st0 st1 st2">PHYLOSOPHY</text>
<g id="XMLID_70_">
	<path id="XMLID_81_" class="st0" d="M102.2,150.9c-6.9,11.1-9.9,18.2-10.1,18.5c-0.4,0.9-0.2,2,0.5,2.7l44.5,44.5
		c0.5,0.5,1.1,0.7,1.7,0.7c0.3,0,0.7-0.1,1-0.2c0.3-0.1,7.4-3.2,18.5-10.1c1.1-0.7,1.5-2.2,0.8-3.3c-0.7-1.1-2.2-1.5-3.3-0.8
		c-7.9,4.9-13.8,7.8-16.4,9.1l-42.1-42.1c1.2-2.6,4.2-8.5,9.1-16.4c0.7-1.1,0.3-2.6-0.8-3.3C104.4,149.4,102.9,149.7,102.2,150.9z"
		/>
	<path id="XMLID_80_" class="st0" d="M123.6,210.7c-0.7-0.7-1.8-0.9-2.8-0.5c-4.3,2-9.5,1.8-14-0.6c-1.2-0.6-2.7-0.2-3.3,1
		c-0.6,1.2-0.2,2.7,1,3.3c5.3,2.9,11.4,3.4,16.7,1.4l3.1,3.1c-13.3,14.8-35.8,13.3-44.3,12.2c2-4.6,1.6-9.9,1.1-15.5
		c-0.8-10-1.6-20.4,9.6-30.2l3.4,3.4c-1.3,5.5-1,10.8,1,15.3c0,0,1.7,4.8-0.3,8.2c-1.2,2-3.5,3.2-6.8,3.7c-1.3,0.2-2.2,1.4-2,2.8
		s1.5,2.2,2.8,2c4.9-0.7,8.4-2.8,10.3-6.1c3.2-5.4,0.7-12,0.6-12.4c-1.7-3.9-1.8-8.6-0.4-13.5c0.2-0.8,0-1.8-0.6-2.4l-5.9-5.9
		c-0.9-0.9-2.2-1-3.2-0.2c-15,11.8-14,25.1-13.1,35.8c0.5,6.3,0.9,11.7-2.1,15.4c-0.5,0.7-0.7,1.5-0.4,2.3c0.3,0.8,0.9,1.4,1.8,1.6
		c0.6,0.1,6.6,1.5,14.8,1.5c11.9,0,28.4-2.8,39.1-16.4c0.8-1,0.7-2.3-0.2-3.2L123.6,210.7z"/>
	<path id="XMLID_77_" class="st0" d="M214.8,127.4c4.4-4.4,6.8-10.3,6.8-16.5c0-6.2-2.4-12.1-6.8-16.5c-4.4-4.4-10.3-6.8-16.5-6.8h0
		c-6.2,0-12.1,2.4-16.5,6.8c-4.4,4.4-6.8,10.3-6.9,16.5s2.4,12.1,6.8,16.5c4.6,4.6,10.5,6.8,16.5,6.8S210.3,131.9,214.8,127.4z
		 M179.8,110.9c0-4.9,1.9-9.6,5.4-13.1c3.5-3.5,8.1-5.4,13.1-5.4c0,0,0,0,0,0c4.9,0,9.6,1.9,13.1,5.4c3.5,3.5,5.4,8.1,5.4,13.1
		c0,4.9-1.9,9.6-5.4,13.1c-7.2,7.2-19,7.2-26.2,0C181.7,120.5,179.8,115.8,179.8,110.9z"/>
	<path id="XMLID_76_" class="st0" d="M250.7,61.2c0.1-0.7-0.2-1.5-0.7-2c-0.5-0.5-1.2-0.8-2-0.7l-7.9,0.9c-4.8-0.7-50.4-6-98.9,42.5
		c-1.7,1.7-3.4,3.5-5,5.2l-29.5,0c-0.7,0-1.4,0.3-1.9,0.9l-47.5,56.4c-0.8,1-0.8,2.4,0.1,3.3l6.7,6.7c0.8,0.8,2,0.9,2.9,0.4
		l27.4-15.6c1.2-0.7,1.6-2.1,0.9-3.3c-0.7-1.2-2.1-1.6-3.3-0.9l-25.7,14.7l-3.8-3.8l45.4-53.8l29.5,0c0.7,0,1.3-0.3,1.8-0.8
		c1.8-1.9,3.7-3.9,5.7-5.8c25.3-25.3,49.8-35.1,65.8-38.9c17.4-4.1,29-2.2,29.1-2.2c0.2,0,0.5,0,0.7,0l5.2-0.6l-0.6,5.2
		c0,0.2,0,0.5,0,0.7c0,0.1,1.9,11.7-2.2,29.2c-3.8,16.1-13.6,40.6-38.9,65.8c-2,2-3.9,3.8-5.9,5.7c-0.5,0.5-0.8,1.1-0.8,1.8l0,29.5
		l-53.8,45.4l-3.8-3.8l16.1-25.3c0.7-1.1,0.4-2.6-0.7-3.4c-1.1-0.7-2.6-0.4-3.3,0.7L134.5,242c-0.6,1-0.5,2.2,0.3,3l6.7,6.7
		c0.5,0.5,1.1,0.7,1.7,0.7c0.6,0,1.1-0.2,1.6-0.6l56.4-47.5c0.5-0.5,0.9-1.1,0.9-1.9l0-29.5c1.7-1.6,3.5-3.3,5.2-5.1
		c48.5-48.5,43.2-94.1,42.5-98.9L250.7,61.2z"/>
	<path id="XMLID_75_" class="st0" d="M141.1,163.7l-20,20c-0.9,0.9-0.9,2.5,0,3.4c0.5,0.5,1.1,0.7,1.7,0.7s1.2-0.2,1.7-0.7l20-20
		c0.9-0.9,0.9-2.5,0-3.4C143.6,162.8,142,162.8,141.1,163.7z"/>
	<path id="XMLID_74_" class="st0" d="M131.1,153.7l-20,20c-0.9,0.9-0.9,2.5,0,3.4c0.5,0.5,1.1,0.7,1.7,0.7c0.6,0,1.2-0.2,1.7-0.7
		l20-20c0.9-0.9,0.9-2.5,0-3.4C133.6,152.8,132,152.8,131.1,153.7z"/>
	<path id="XMLID_73_" class="st0" d="M130.9,197c0.5,0.5,1.1,0.7,1.7,0.7s1.2-0.2,1.7-0.7l20-20c0.9-0.9,0.9-2.5,0-3.4
		c-0.9-0.9-2.5-0.9-3.4,0l-20,20C129.9,194.5,129.9,196,130.9,197z"/>
	<path id="XMLID_72_" class="st0" d="M130.5,119.9h-22.2c-1.3,0-2.4,1.1-2.4,2.4s1.1,2.4,2.4,2.4h22.2c1.3,0,2.4-1.1,2.4-2.4
		S131.8,119.9,130.5,119.9z"/>
	<path id="XMLID_71_" class="st0" d="M184.4,178.7V201c0,1.3,1.1,2.4,2.4,2.4c1.3,0,2.4-1.1,2.4-2.4v-22.2c0-1.3-1.1-2.4-2.4-2.4
		C185.5,176.3,184.4,177.4,184.4,178.7z"/>
</g>
<rect id="XMLID_1_" x="3.5" y="2" class="st3" width="300" height="300"/>
<text id="XMLID_68_" transform="matrix(1.0043 0 0 1 5.5525 363.2721)" class="st4 st1 st5">ditribute html experiance.</text>
</svg>
