<?xml version="1.0" encoding="utf-8"?>
<!-- Generator: Adobe Illustrator 19.0.0, SVG Export Plug-In . SVG Version: 6.00 Build 0)  -->
<svg version="1.1" id="Слой_1" xmlns="http://www.w3.org/2000/svg" xmlns:xlink="http://www.w3.org/1999/xlink" x="0px" y="0px"
	 viewBox="0 0 1366 491" style="enable-background:new 0 0 1366 491;" xml:space="preserve">
<style type="text/css">
	.st0{fill:#E6E6E6;}
	.st1{fill:#F2F2F2;}
	.st2{fill:#3E59A5;}
	.st3{font-family:'Roboto-Regular';}
	.st4{font-size:22px;}
	.st5{fill:none;}
	.st6{fill:#343434;}
	.st7{font-size:20px;}
	.st8{fill:#595A5C;}
	.st9{font-size:14px;}
	.st10{fill:#010202;}
	.st11{font-size:24px;}
	.st12{font-family:'MyriadPro-Regular';}
	.st13{font-size:12px;}
	.st14{fill:#BDCCD4;}
	.st15{fill:#FFFFFF;}
	.st16{fill:#4B63AC;}
	.st17{font-family:'Helvetica-Bold';}
	.st18{font-size:11.8462px;}
	.st19{fill:#F1F1F2;stroke:#808284;stroke-miterlimit:10;}
	.st20{fill:#DA4636;}
	.st21{fill:#404042;}
	.st22{fill:#61A8DC;}
	.st23{enable-background:new    ;}
</style>
<rect y="90.3" class="st0" width="1366" height="345.5"/>
<rect id="XMLID_5_" x="98" y="180" class="st1" width="570" height="225"/>
<text transform="matrix(1.0043 0 0 1 145.7168 214.106)" class="st2 st3 st4">Responsive Web Design</text>
<g>
	<rect id="XMLID_250_" x="298" y="241.3" class="st5" width="355" height="124.3"/>
	<text id="XMLID_249_" transform="matrix(1.0043 0 0 1 297.9927 255.4751)"><tspan x="0" y="0" class="st6 st3 st7">approach that suggests that design and </tspan><tspan x="0" y="24" class="st6 st3 st7">development should respond to the </tspan><tspan x="0" y="48" class="st6 st3 st7">user&apos;s behavior and environment based </tspan><tspan x="0" y="72" class="st6 st3 st7">on screen size, platform and orienta</tspan><tspan x="315.2" y="72" class="st6 st3 st7">-</tspan><tspan x="0" y="96" class="st6 st3 st7">tion.</tspan></text>
</g>
<rect id="XMLID_4_" x="697" y="180" class="st1" width="570" height="225"/>
<text transform="matrix(1.0043 0 0 1 714.6152 214.106)" class="st2 st3 st4">App Development</text>
<g>
	<rect id="XMLID_252_" x="898.1" y="237.5" class="st5" width="353.5" height="137.8"/>
	<text id="XMLID_251_" transform="matrix(1.0043 0 0 1 898.0659 251.7319)"><tspan x="0" y="0" class="st8 st3 st7">Mobile application development is the </tspan><tspan x="0" y="24" class="st8 st3 st7">process of making or creating a mobile </tspan><tspan x="0" y="48" class="st8 st3 st7">application to run on various mobile </tspan><tspan x="0" y="72" class="st8 st3 st7">platforms. A mobile platform is a </tspan><tspan x="0" y="96" class="st8 st3 st7">mobile operating system.</tspan></text>
</g>
<path class="st2" d="M844.4,323.9c-0.8-0.7-2.1-0.6-2.8,0.2l-13.7,16.1l-8.7-6.9c-0.9-0.7-2.1-0.5-2.8,0.3s-0.5,2.1,0.3,2.8
	l10.2,8.1c0.4,0.3,0.8,0.4,1.2,0.4c0.6,0,1.1-0.2,1.5-0.7l14.9-17.5C845.4,325.9,845.3,324.6,844.4,323.9z M830.6,357.1
	c-1.1,0-2,0.9-2,2c0,3.3-2.7,5.9-5.9,5.9h-52.5c-3.3,0-5.9-2.6-5.9-5.9V251.3c0-3.3,2.7-5.9,5.9-5.9h52.5c3.3,0,5.9,2.6,5.9,5.9
	v60.3c0,1.1,0.9,2,2,2s2-0.9,2-2v-33.6c1.5-0.3,2.6-1.6,2.6-3.2v-8.6c0-1.6-1.1-2.9-2.6-3.2v-11.6c0-5.4-4.4-9.8-9.9-9.8h-52.5
	c-5.5,0-9.9,4.4-9.9,9.8v107.8c0,5.4,4.4,9.8,9.9,9.8h52.5c5,0,9.2-3.7,9.8-8.6c0.1-0.2,0.1-0.4,0.1-0.6v-0.7
	C832.5,358,831.7,357.1,830.6,357.1z M806.3,251.4c1.1,0,2-0.9,2-2c0-1.1-0.9-2-2-2h-19.8c-1.1,0-2,0.9-2,2c0,1.1,0.9,2,2,2H806.3z
	 M790.9,358.2c0,3,2.5,5.5,5.5,5.5s5.5-2.5,5.5-5.5s-2.5-5.5-5.5-5.5S790.9,355.2,790.9,358.2z M798,358.2c0,0.8-0.7,1.5-1.5,1.5
	s-1.5-0.7-1.5-1.5s0.7-1.5,1.5-1.5S798,357.3,798,358.2z M820,313.4c1.2,0,2.2-1,2.2-2.2v-44.1c0-3.7-3.5-6.9-7.6-6.9h-35.7
	c-4.2,0-7.6,3.4-7.6,7.5v73.5c0,4.2,3.4,7.5,7.6,7.5h31.2c1.2,0,2.2-1,2.2-2.2s-1-2.2-2.2-2.2h-31.2c-1.8,0-3.2-1.4-3.2-3.2v-73.5
	c0-1.8,1.4-3.2,3.2-3.2h35.7c1.9,0,3.2,1.5,3.2,2.5v44.1C817.9,312.4,818.8,313.4,820,313.4z"/>
<g>
	<path class="st2" d="M174.2,361.9c0.7,0.9,1.8,1.5,3,1.5h48.2c1.6,0,3-1,3.6-2.4c0.1-0.2,1-2.6,1.4-3.6c1-2.8,2-5.8,2.9-9
		c1.5-5.1,2.7-10.1,3.4-14.8c1.6-10.2,1.2-18.4-2.2-24c-3.5-5.8-9.9-10-18.1-13c-4.3-1.5-8.9-2.7-13.4-3.4c-1.6-0.3-2.6-0.4-2.6-0.4
		v-35c0-6.3-5.2-11.5-11.6-11.5h-1.9c-6.4,0-11.6,5.2-11.6,11.5l0,60.6l-12.8-11.2c-8.2-7.2-19.7-5.3-25.1,4.2
		c-0.8,1.5-0.7,3.2,0.3,4.4L174.2,361.9z M146.7,312.2c3.1-2.4,7.3-2.2,10.8,0.8l19.2,16.7c2.5,2.2,6.4,0.4,6.4-2.9v-69.1
		c0-2.1,1.7-3.8,3.9-3.8h1.9c2.1,0,3.9,1.7,3.9,3.8v38.4c0,2,1.6,3.7,3.6,3.8c0.2,0,0.7,0.1,1.4,0.1c1.2,0.1,2.5,0.3,4,0.6
		c4.1,0.7,8.3,1.7,12.1,3.1c6.8,2.4,11.7,5.7,14.2,9.7c2.2,3.6,2.6,10.2,1.2,18.8c-0.7,4.4-1.8,9.1-3.2,13.9c-0.9,3-1.8,5.9-2.8,8.6
		c-0.3,0.9-0.3,0.9-0.3,0.9h-43.6l-33.7-42.3C145.5,313.3,146,312.7,146.7,312.2z"/>
	<path class="st2" d="M213.3,253.5c-2.4-11.8-12.9-20.7-25.5-20.7c-14.4,0-26,11.6-26,25.9c0,9.6,5.3,18.3,13.6,22.8
		c1.9,1,4.2,0.3,5.2-1.5c1-1.9,0.3-4.2-1.5-5.2c-5.9-3.2-9.6-9.3-9.6-16c0-10.1,8.2-18.2,18.3-18.2c10.1,0,18.3,8.2,18.3,18.2
		c0,6.7-3.6,12.7-9.4,15.9c-1.9,1-2.5,3.4-1.5,5.2c1,1.9,3.4,2.5,5.2,1.5c7.5-4.2,12.4-11.7,13.2-20.2h11.3v3.8c0,1,0.7,1.4,1.6,0.8
		l10.3-7.4c0.9-0.6,0.9-1.6,0-2.2l-10.3-7.4c-0.9-0.6-1.6-0.3-1.6,0.8v3.8H213.3L213.3,253.5z"/>
</g>
<text transform="matrix(1 0 0 1 595.0137 386.425)" class="st2 st3 st9">read more</text>
<text transform="matrix(1 0 0 1 1195.0137 386.425)" class="st2 st3 st9">read more</text>
<text transform="matrix(1 0 0 1 98.0002 143.2722)" class="st10 st3 st11">Featured | view all featured media</text>
<text transform="matrix(1 0 0 1 97.0066 470.7985)" class="st6 st12 st13">©2017 hyper text murkup language</text>
<text transform="matrix(1 0 0 1 1193.459 470.7988)" class="st6 st12 st13">created by: ME</text>
<rect id="XMLID_3_" y="1" class="st14" width="1366" height="90"/>
<text transform="matrix(1 0 0 1 99.0498 49.2436)" class="st15 st12 st4" style="text-decoration: underline;">go back</text>
<g>
	<g>
		<g>
			<rect x="1067.2" y="35.4" class="st16" width="60.3" height="21"/>
			<text transform="matrix(1 0 0 1 1088.7192 50.2356)" class="st15 st17 st18">Share</text>
			<path class="st15" d="M1084.7,50.2c0,0.8-0.3,1.4-0.8,1.9c-0.5,0.5-1.2,0.8-1.9,0.8h-1.8v-5.8h1.9l0.3-2.1h-2.2v-1.3
				c0-0.3,0.1-0.6,0.3-0.8c0.2-0.2,0.5-0.3,0.9-0.3h1.2v-2c-0.6-0.1-1.2-0.1-1.7-0.1c-0.9,0-1.6,0.3-2,0.8c-0.5,0.5-0.8,1.2-0.8,2.2
				V45h-2.1v2.1h2.1v5.8h-5.2c-0.7,0.1-1.3-0.2-1.9-0.8c-0.5-0.5-0.8-1.2-0.8-1.9v-9c0-0.8,0.3-1.4,0.8-1.9s1.2-0.8,1.9-0.8h9.1
				c0.7,0,1.3,0.3,1.9,0.8c0.5,0.5,0.8,1.2,0.8,1.9V50.2L1084.7,50.2z"/>
		</g>
	</g>
	<g>
		<path class="st19" d="M1191.6,54.4c0,1.1-0.9,2.1-1.9,2.1h-53.7c-1.1,0-1.9-0.9-1.9-2.1V37.5c0-1.1,0.9-2.1,1.9-2.1h53.7
			c1.1,0,1.9,0.9,1.9,2.1V54.4z"/>
		<g>
			<polygon class="st20" points="1156,43.6 1154.3,43.6 1154.3,45.3 1152.6,45.3 1152.6,47 1154.3,47 1154.3,48.7 1156,48.7 
				1156,47 1157.7,47 1157.7,45.3 1156,45.3 			"/>
			<path class="st20" d="M1144.3,45.3v2.4h3.4c-0.3,1.5-1.5,2.5-3.4,2.5c-2,0-3.7-1.7-3.7-3.8s1.6-3.8,3.7-3.8
				c0.9,0,1.8,0.3,2.4,0.9l1.8-1.8c-1.1-1-2.5-1.6-4.2-1.6c-3.4,0-6.2,2.8-6.2,6.2s2.8,6.2,6.2,6.2c3.6,0,6-2.5,6-6.1
				c0-0.5-0.1-0.9-0.1-1.3H1144.3z"/>
		</g>
		<g>
			<path class="st21" d="M1161.9,47.8l1.4-0.2c0.1,0.3,0.2,0.5,0.4,0.6c0.2,0.1,0.4,0.2,0.8,0.2c0.4,0,0.6-0.1,0.8-0.2
				c0.1-0.1,0.2-0.2,0.2-0.4c0-0.1,0-0.2-0.1-0.3c-0.1-0.1-0.2-0.1-0.5-0.2c-1.1-0.2-1.8-0.5-2.1-0.7c-0.4-0.3-0.6-0.7-0.6-1.2
				c0-0.5,0.2-0.8,0.5-1.1c0.4-0.3,0.9-0.5,1.7-0.5c0.7,0,1.2,0.1,1.6,0.3c0.3,0.2,0.6,0.6,0.7,1l-1.3,0.2c-0.1-0.2-0.2-0.4-0.3-0.5
				c-0.2-0.1-0.4-0.2-0.7-0.2c-0.4,0-0.6,0.1-0.8,0.2c-0.1,0.1-0.2,0.2-0.2,0.3c0,0.1,0,0.2,0.1,0.3c0.1,0.1,0.6,0.2,1.3,0.4
				c0.7,0.2,1.2,0.4,1.5,0.6c0.3,0.2,0.4,0.6,0.4,1c0,0.5-0.2,0.9-0.6,1.2c-0.4,0.3-1,0.5-1.8,0.5c-0.7,0-1.3-0.1-1.7-0.4
				S1162,48.2,1161.9,47.8z"/>
			<path class="st21" d="M1169.4,42v2.6c0.4-0.5,1-0.8,1.6-0.8c0.3,0,0.6,0.1,0.9,0.2c0.3,0.1,0.4,0.3,0.6,0.5
				c0.1,0.2,0.2,0.4,0.3,0.6c0,0.2,0.1,0.6,0.1,1v3.1h-1.4v-2.8c0-0.5,0-0.9-0.1-1c-0.1-0.1-0.1-0.3-0.3-0.4s-0.3-0.1-0.5-0.1
				c-0.2,0-0.4,0.1-0.6,0.2c-0.2,0.1-0.3,0.3-0.4,0.5c-0.1,0.2-0.1,0.6-0.1,1v2.6h-1.4V42H1169.4z"/>
			<path class="st21" d="M1175.2,45.6l-1.3-0.2c0.1-0.5,0.4-0.9,0.7-1.1c0.3-0.2,0.9-0.4,1.5-0.4c0.6,0,1.1,0.1,1.4,0.2
				c0.3,0.1,0.5,0.3,0.6,0.6c0.1,0.2,0.2,0.6,0.2,1.2l0,1.6c0,0.5,0,0.8,0.1,1s0.1,0.5,0.2,0.7h-1.4c0-0.1-0.1-0.2-0.1-0.4
				c0-0.1,0-0.1,0-0.2c-0.2,0.2-0.5,0.4-0.8,0.5c-0.3,0.1-0.6,0.2-0.9,0.2c-0.5,0-1-0.1-1.3-0.4c-0.3-0.3-0.5-0.7-0.5-1.1
				c0-0.3,0.1-0.6,0.2-0.8c0.1-0.2,0.3-0.4,0.6-0.5c0.3-0.1,0.6-0.2,1.1-0.3c0.6-0.1,1.1-0.2,1.3-0.3v-0.1c0-0.3-0.1-0.5-0.2-0.6
				s-0.4-0.2-0.7-0.2c-0.2,0-0.4,0-0.6,0.1S1175.3,45.4,1175.2,45.6z M1177,46.7c-0.2,0.1-0.5,0.1-0.8,0.2c-0.4,0.1-0.6,0.2-0.8,0.2
				c-0.2,0.1-0.3,0.3-0.3,0.5c0,0.2,0.1,0.4,0.2,0.5s0.3,0.2,0.6,0.2c0.2,0,0.5-0.1,0.7-0.2c0.2-0.1,0.3-0.3,0.3-0.5
				c0-0.1,0.1-0.3,0.1-0.7V46.7z"/>
			<path class="st21" d="M1181.1,49.2h-1.4V44h1.3v0.7c0.2-0.4,0.4-0.6,0.6-0.7c0.2-0.1,0.4-0.2,0.6-0.2c0.3,0,0.6,0.1,0.9,0.3
				l-0.4,1.2c-0.2-0.2-0.4-0.2-0.6-0.2c-0.2,0-0.4,0.1-0.5,0.2c-0.1,0.1-0.2,0.3-0.3,0.6c-0.1,0.3-0.1,0.9-0.1,1.7V49.2z"/>
			<path class="st21" d="M1186.7,47.6l1.4,0.2c-0.2,0.5-0.5,0.9-0.8,1.2c-0.4,0.3-0.9,0.4-1.4,0.4c-0.9,0-1.6-0.3-2-0.9
				c-0.3-0.5-0.5-1.1-0.5-1.8c0-0.9,0.2-1.5,0.7-2c0.5-0.5,1-0.7,1.7-0.7c0.8,0,1.4,0.3,1.8,0.8c0.4,0.5,0.7,1.3,0.6,2.4h-3.5
				c0,0.4,0.1,0.7,0.3,1c0.2,0.2,0.5,0.3,0.8,0.3c0.2,0,0.4-0.1,0.5-0.2S1186.6,47.8,1186.7,47.6z M1186.8,46.2
				c0-0.4-0.1-0.7-0.3-0.9c-0.2-0.2-0.4-0.3-0.7-0.3c-0.3,0-0.6,0.1-0.7,0.3c-0.2,0.2-0.3,0.5-0.3,0.9H1186.8z"/>
		</g>
	</g>
	<g>
		<path class="st22" d="M1267,55.2c0,0.6-0.4,1-1.1,1h-67c-0.6,0-1.1-0.4-1.1-1V36.4c0-0.6,0.4-1,1.1-1h67c0.6,0,1.1,0.4,1.1,1
			L1267,55.2L1267,55.2z"/>
		<g>
			<path class="st15" d="M1216,43c-0.4,0.2-0.8,0.3-1.3,0.3c0.4-0.3,0.8-0.6,1-1.1c-0.4,0.2-0.9,0.4-1.4,0.5c-0.4-0.4-1-0.6-1.5-0.6
				c-1.2,0-2.2,0.9-2.2,2c0,0.2,0,0.3,0.1,0.5c-1.7-0.2-3.4-1-4.4-2.2c-0.2,0.3-0.2,0.6-0.2,1c0,0.7,0.4,1.3,1,1.6
				c-0.4,0-0.6-0.1-1-0.3l0,0c0,1,0.8,1.7,1.6,1.9c-0.2,0-0.4,0.1-0.5,0.1s-0.3,0-0.4,0c0.3,0.8,1.1,1.4,1.9,1.4
				c-0.6,0.5-1.6,0.8-2.6,0.8c-0.2,0-0.3,0-0.5,0c1,0.5,2.1,0.9,3.2,0.9c3.9,0,6-3,6-5.6c0-0.1,0-0.2,0-0.3
				C1215.2,43.8,1215.6,43.4,1216,43z"/>
		</g>
		<g class="st23">
			<path class="st15" d="M1227.3,40.7v1.4h-3.1v7.9h-1.9v-7.9h-3.1v-1.4H1227.3z"/>
			<path class="st15" d="M1226.4,43.5h1.4c0.1,0,0.2,0,0.3,0.1c0.1,0.1,0.2,0.1,0.2,0.2l1,3.5c0.1,0.2,0.1,0.4,0.1,0.6
				c0,0.2,0.1,0.4,0.1,0.5c0.1-0.2,0.1-0.4,0.2-0.5s0.1-0.4,0.2-0.6l1.2-3.5c0-0.1,0.1-0.2,0.2-0.2c0.1-0.1,0.2-0.1,0.3-0.1h0.8
				c0.1,0,0.2,0,0.3,0.1c0.1,0.1,0.1,0.1,0.2,0.2l1.2,3.5c0.1,0.2,0.1,0.4,0.2,0.6s0.1,0.4,0.2,0.6c0-0.2,0.1-0.4,0.1-0.6
				c0-0.2,0.1-0.4,0.2-0.6l1.1-3.5c0-0.1,0.1-0.2,0.2-0.2c0.1-0.1,0.2-0.1,0.3-0.1h1.3l-2.3,6.6h-1.4c-0.2,0-0.3-0.1-0.3-0.3
				l-1.3-3.8c-0.1-0.3-0.2-0.5-0.2-0.8c-0.1,0.3-0.1,0.5-0.2,0.8l-1.3,3.8c-0.1,0.2-0.2,0.3-0.4,0.3h-1.3L1226.4,43.5z"/>
			<path class="st15" d="M1241.3,43.4c0.5,0,0.9,0.1,1.3,0.2c0.4,0.1,0.7,0.3,1,0.6c0.3,0.3,0.5,0.6,0.6,0.9s0.2,0.8,0.2,1.3
				c0,0.2,0,0.4-0.1,0.5c-0.1,0.1-0.2,0.1-0.3,0.1h-4.5c0,0.3,0.1,0.6,0.2,0.9c0.1,0.2,0.2,0.5,0.4,0.6c0.2,0.2,0.4,0.3,0.6,0.4
				c0.2,0.1,0.5,0.1,0.8,0.1s0.5,0,0.7-0.1c0.2-0.1,0.4-0.1,0.5-0.2c0.2-0.1,0.3-0.1,0.4-0.2s0.2-0.1,0.3-0.1c0.2,0,0.3,0,0.3,0.2
				l0.5,0.6c-0.2,0.2-0.4,0.4-0.6,0.5c-0.2,0.1-0.5,0.3-0.7,0.3c-0.3,0.1-0.5,0.1-0.8,0.2c-0.3,0-0.5,0-0.8,0c-0.5,0-1-0.1-1.4-0.2
				c-0.4-0.2-0.8-0.4-1.1-0.7c-0.3-0.3-0.6-0.7-0.8-1.1c-0.2-0.4-0.3-1-0.3-1.5c0-0.5,0.1-0.9,0.2-1.3c0.2-0.4,0.4-0.7,0.7-1
				c0.3-0.3,0.7-0.5,1.1-0.7C1240.3,43.4,1240.8,43.4,1241.3,43.4z M1241.4,44.5c-0.5,0-0.9,0.1-1.2,0.4c-0.3,0.3-0.5,0.6-0.5,1.1
				h3.3c0-0.2,0-0.4-0.1-0.6c-0.1-0.2-0.2-0.3-0.3-0.5c-0.1-0.1-0.3-0.2-0.5-0.3C1241.9,44.5,1241.6,44.5,1241.4,44.5z"/>
			<path class="st15" d="M1248.8,43.4c0.5,0,0.9,0.1,1.3,0.2c0.4,0.1,0.7,0.3,1,0.6c0.3,0.3,0.5,0.6,0.6,0.9
				c0.2,0.4,0.2,0.8,0.2,1.3c0,0.2,0,0.4-0.1,0.5c-0.1,0.1-0.2,0.1-0.3,0.1h-4.4c0,0.3,0.1,0.6,0.2,0.9c0.1,0.2,0.2,0.5,0.4,0.6
				c0.2,0.2,0.4,0.3,0.6,0.4c0.2,0.1,0.5,0.1,0.8,0.1s0.5,0,0.7-0.1c0.2-0.1,0.4-0.1,0.5-0.2c0.2-0.1,0.3-0.1,0.4-0.2
				s0.2-0.1,0.3-0.1c0.2,0,0.3,0,0.3,0.2l0.5,0.6c-0.2,0.2-0.4,0.4-0.6,0.5c-0.2,0.1-0.5,0.3-0.7,0.3c-0.3,0.1-0.5,0.1-0.8,0.2
				c-0.3,0-0.5,0-0.8,0c-0.5,0-1-0.1-1.4-0.2c-0.4-0.2-0.8-0.4-1.1-0.7c-0.3-0.3-0.6-0.7-0.8-1.1c-0.2-0.4-0.3-1-0.3-1.5
				c0-0.5,0.1-0.9,0.2-1.3c0.2-0.4,0.4-0.7,0.7-1c0.3-0.3,0.7-0.5,1.1-0.7C1247.8,43.4,1248.3,43.4,1248.8,43.4z M1248.9,44.5
				c-0.5,0-0.9,0.1-1.2,0.4c-0.3,0.3-0.5,0.6-0.5,1.1h3.3c0-0.2,0-0.4-0.1-0.6c-0.1-0.2-0.2-0.3-0.3-0.5c-0.1-0.1-0.3-0.2-0.5-0.3
				C1249.4,44.5,1249.1,44.5,1248.9,44.5z"/>
			<path class="st15" d="M1255.6,50.2c-0.6,0-1.1-0.2-1.4-0.5c-0.3-0.3-0.5-0.8-0.5-1.3v-3.7h-0.7c-0.1,0-0.2,0-0.2-0.1
				s-0.1-0.1-0.1-0.3v-0.6l1.2-0.2l0.4-1.8c0-0.1,0.1-0.2,0.1-0.2c0.1,0,0.2-0.1,0.3-0.1h0.9v2.1h1.9v1.1h-1.9v3.6
				c0,0.2,0.1,0.4,0.2,0.5s0.3,0.2,0.5,0.2c0.1,0,0.2,0,0.3,0c0.1,0,0.1,0,0.2-0.1c0.1,0,0.1,0,0.1-0.1c0,0,0.1,0,0.1,0
				c0.1,0,0.1,0,0.1,0c0,0,0.1,0.1,0.1,0.1l0.5,0.8c-0.3,0.2-0.5,0.3-0.9,0.4C1256.2,50.2,1255.9,50.2,1255.6,50.2z"/>
		</g>
	</g>
</g>
</svg>
