<?xml version="1.0" encoding="utf-8"?>
<!-- Generator: Adobe Illustrator 19.0.0, SVG Export Plug-In . SVG Version: 6.00 Build 0)  -->
<svg version="1.1" id="Слой_1" xmlns="http://www.w3.org/2000/svg" xmlns:xlink="http://www.w3.org/1999/xlink" x="0px" y="0px"
	 viewBox="0 0 204.7 63" style="enable-background:new 0 0 204.7 63;" xml:space="preserve">
<style type="text/css">
	.st0{fill:#E84239;}
</style>
<path id="XMLID_2_" class="st0" d="M17.9,51.9c-0.2,0-0.5-0.2-1-0.5L6.1,39.8c-0.5-0.5-0.9-1-1.1-1.2c-0.2-0.3-0.4-0.6-0.6-1
	c-0.2-0.4-0.3-0.9-0.2-1.3l0.1-1.6c0-0.5,0.2-0.9,0.4-1.3c0.2-0.4,0.5-0.7,0.7-0.9c0.2-0.2,0.6-0.6,1.3-1.1l12-10.7
	c0.3-0.2,0.6-0.3,1-0.3c0.4,0,0.7,0.2,0.9,0.5c0.2,0.3,0.3,0.6,0.3,1l-0.1,1.8c0,0.2,0,0.4-0.1,0.5c0,0.2-0.1,0.3-0.1,0.4
	c0,0.1-0.1,0.3-0.2,0.4c-0.1,0.2-0.2,0.3-0.2,0.3c0,0.1-0.1,0.2-0.3,0.3c-0.2,0.2-0.3,0.3-0.3,0.3c0,0-0.2,0.1-0.4,0.3
	c-0.2,0.2-0.4,0.3-0.4,0.3l-9.2,8.6c-0.2,0.2-0.4,0.4-0.4,0.6s0.1,0.4,0.3,0.6l8.3,9.2c0.1,0.1,0.2,0.2,0.4,0.4
	c0.2,0.2,0.3,0.3,0.4,0.4c0.1,0.1,0.2,0.2,0.3,0.3c0.1,0.1,0.2,0.3,0.3,0.3c0,0.1,0.1,0.2,0.2,0.3c0.1,0.1,0.1,0.3,0.2,0.4
	c0,0.1,0,0.3,0.1,0.4c0,0.2,0,0.3,0,0.5l-0.1,2c0,0.4-0.2,0.7-0.4,0.9C18.6,51.8,18.2,52,17.9,51.9z"/>
<path class="st0" d="M45.1,4.1l-9.2,57.7c-0.1,0.8-0.3,1.1-0.6,1.1l-5.4,0c-0.2,0-0.4-0.3-0.4-0.8c0,0,0-0.1,0-0.1
	c0-0.1,0-0.1,0-0.2l9.2-57.7"/>
<path class="st0" d="M53.8,56.3c-0.4,0-0.6-0.1-0.8-0.3c-0.2-0.2-0.2-0.6-0.2-1.2V11.3c0-0.6,0.1-1.1,0.2-1.2
	c0.2-0.2,0.4-0.3,0.8-0.3h5.7c0.4,0,0.6,0.1,0.8,0.3c0.2,0.2,0.2,0.6,0.2,1.2v17.2c0,0.2,0,0.4,0.1,0.5c0.1,0.2,0.2,0.2,0.3,0.2
	h11.7c0.1,0,0.2-0.1,0.3-0.2c0.1-0.2,0.2-0.3,0.2-0.5V11.3c0-0.6,0.1-1,0.3-1.2c0.2-0.2,0.4-0.3,0.8-0.3h5.8c0.3,0,0.6,0.1,0.7,0.3
	c0.2,0.2,0.2,0.6,0.2,1.2v43.5c0,0.6-0.1,1.1-0.2,1.2c-0.2,0.2-0.4,0.3-0.7,0.3H74c-0.2,0-0.4,0-0.5-0.1c-0.1-0.1-0.2-0.2-0.4-0.4
	c-0.1-0.2-0.2-0.6-0.2-1V35c0-0.5-0.1-0.7-0.4-0.7H60.9c-0.3,0-0.4,0.2-0.4,0.7v19.8c0,0.6-0.1,1-0.3,1.2c-0.2,0.2-0.4,0.3-0.8,0.3
	H53.8z"/>
<path class="st0" d="M95.4,56.3c-0.3,0-0.6-0.1-0.7-0.3c-0.2-0.2-0.3-0.6-0.3-1.2v-39c0-0.5-0.1-0.8-0.4-0.8h-6.8
	c-0.3,0-0.4,0-0.6,0c-0.1,0-0.2-0.1-0.3-0.3c-0.1-0.2-0.1-0.5-0.1-0.9v-2.6c0-0.6,0.1-1,0.2-1.1c0.2-0.2,0.4-0.3,0.8-0.3h22.1
	c0.3,0,0.6,0.1,0.7,0.3c0.2,0.2,0.2,0.6,0.2,1.1v2.6c0,0.5-0.1,0.9-0.2,1c-0.1,0.1-0.4,0.2-0.8,0.2h-6.7c-0.3,0-0.4,0.3-0.4,0.8v39
	c0,0.6-0.1,1.1-0.3,1.3c-0.2,0.2-0.4,0.3-0.8,0.3H95.4z"/>
<path class="st0" d="M116,56.3c-0.6,0-0.9-0.5-0.9-1.6v-0.2l1.8-43c0-1.2,0.4-1.8,1-1.8h6.2c0.4,0,0.7,0.1,1,0.3
	c0.3,0.2,0.5,0.6,0.6,1.2l6.6,30.6c0,0.1,0.1,0.2,0.1,0.2c0.1,0,0.1,0,0.2,0c0.1,0,0.1-0.1,0.1-0.2l6.7-30.5c0.2-1,0.7-1.6,1.5-1.6
	h6.3c0.6,0,0.9,0.7,0.9,1.8l1.8,43v0.2c0,1-0.3,1.6-1,1.6h-4.3c-0.6,0-1-0.6-1-1.7l-1.2-33.3c0-0.1,0-0.2-0.1-0.2
	c-0.1,0-0.1,0-0.2,0.1l-7.1,33.6c-0.2,1-0.7,1.6-1.3,1.6H131c-0.6,0-1.1-0.5-1.3-1.6l-6.9-33.4c0-0.1-0.1-0.2-0.2-0.1
	c0,0,0,0.1,0,0.2l-1.3,33.1c0,1.2-0.3,1.7-0.9,1.7H116z"/>
<path class="st0" d="M159.1,56.3c-0.3,0-0.6-0.1-0.7-0.3c-0.2-0.2-0.2-0.6-0.2-1.2V11.3c0-0.6,0.1-1.1,0.2-1.2
	c0.2-0.2,0.4-0.3,0.7-0.3h5.8c0.3,0,0.6,0.1,0.7,0.3c0.2,0.2,0.2,0.6,0.2,1.2v39.2c0,0.5,0.2,0.7,0.5,0.7h10.2
	c0.3,0,0.6,0.1,0.7,0.2c0.2,0.2,0.2,0.5,0.2,1V55c0,0.5-0.1,0.9-0.2,1.1c-0.2,0.2-0.4,0.2-0.7,0.2H159.1z"/>
<path class="st0" d="M186.4,51.6c-0.4,0-0.7-0.1-0.9-0.4c-0.2-0.3-0.4-0.6-0.4-1v-1.8c0-0.2,0-0.3,0-0.4c0-0.1,0-0.3,0.1-0.4
	c0-0.1,0.1-0.2,0.1-0.3c0.1-0.1,0.1-0.2,0.1-0.3c0-0.1,0.1-0.2,0.2-0.3c0.1-0.1,0.2-0.2,0.2-0.3c0-0.1,0.1-0.1,0.2-0.3
	c0.1-0.1,0.2-0.2,0.3-0.3c0.1,0,0.2-0.1,0.3-0.3c0.2-0.1,0.3-0.2,0.3-0.3l8.8-9c0.2-0.2,0.3-0.4,0.3-0.6c0-0.2-0.1-0.4-0.4-0.6
	l-8.7-8.7c-0.1-0.1-0.2-0.2-0.5-0.4c-0.2-0.2-0.4-0.3-0.4-0.4c-0.1-0.1-0.2-0.2-0.3-0.3c-0.2-0.2-0.3-0.3-0.3-0.4
	c0-0.1-0.1-0.2-0.2-0.4c-0.1-0.2-0.1-0.3-0.2-0.5c0-0.2,0-0.4,0-0.6v-2.1c0-0.4,0.1-0.7,0.4-1c0.2-0.2,0.5-0.4,0.9-0.4
	c0.3,0,0.6,0.1,1,0.4l11.4,11.1c0.6,0.6,1,1,1.2,1.2c0.2,0.2,0.4,0.5,0.6,0.9c0.2,0.4,0.3,0.9,0.3,1.3v1.6c0,0.2,0,0.3,0,0.5
	c0,0.1-0.1,0.3-0.1,0.4c-0.1,0.2-0.1,0.3-0.1,0.4c0,0.1-0.1,0.2-0.2,0.4c-0.1,0.2-0.2,0.3-0.2,0.3c0,0.1-0.1,0.2-0.3,0.4
	c-0.2,0.2-0.3,0.3-0.3,0.3c0,0-0.2,0.2-0.4,0.4c-0.2,0.2-0.4,0.3-0.4,0.4l-11.3,11.3C187,51.5,186.7,51.6,186.4,51.6z"/>
</svg>
