<?xml version="1.0" encoding="utf-8"?>
<!-- Generator: Adobe Illustrator 19.0.0, SVG Export Plug-In . SVG Version: 6.00 Build 0)  -->
<svg version="1.1" id="Слой_1" xmlns="http://www.w3.org/2000/svg" xmlns:xlink="http://www.w3.org/1999/xlink" x="0px" y="0px"
	 viewBox="0 0 194.5 243.8" style="enable-background:new 0 0 194.5 243.8;" xml:space="preserve">
<style type="text/css">
	.st0{fill:#E84239;}
	.st1{font-family:'Roboto-Regular';}
	.st2{font-size:22px;}
	.st3{fill:#D7E0E5;}
	.st4{fill:#010202;}
</style>
<text transform="matrix(0.9961 0 0 1 20.7266 21.3509)" class="st0 st1 st2">TEAM</text>
<g>
	<g>
		<path class="st3" d="M79.3,197.3c1.2,4.2,5,6.9,9.2,6.9c0.9,0,1.8-0.1,2.7-0.4c5.1-1.5,8-6.8,6.5-11.9l-11.8-40.3
			c-0.7-2.4-2.3-4.4-4.5-5.7c-0.6,0.4-1.2,0.8-1.8,1.1c-6.3,3.5-14.7,5.6-26.4,6.7c-0.2,0-0.5,0-0.7,0c-4,0-7.3-3-7.6-7
			c-0.2-2,0.4-4,1.7-5.6c1.3-1.6,3.1-2.6,5.2-2.7c7.1-0.7,13.1-1.8,17.3-3.4c0.3-0.1,0.6-0.3,0.9-0.4l2.9-14.3
			c1.2,1.5,2.2,3.1,3,4.6c0.4,0.7,0.6,1.4,0.8,2c0.3,1,0.5,1.9,0.5,2.6c0,0.2,0,0.4,0,0.6l0,0c-0.1,0.7-0.3,1.3-0.9,2.1
			c-0.8,1.1-2.7,2.7-6.7,4.2c-3.9,1.5-9.7,2.8-17.7,3.5c-3.4,0.3-5.9,3.3-5.5,6.7c0.3,3.2,3,5.6,6.1,5.6c0.2,0,0.4,0,0.6,0
			c11.6-1.1,19.8-3.2,25.8-6.5c3-1.7,5.4-3.7,7.2-6.1c1.8-2.4,2.9-5.2,3.2-7.9c0,0,0,0,0,0c0.1-0.8,0.1-1.5,0.1-2.2
			c0-1.2-0.1-2.4-0.3-3.5c-0.5-2.6-1.4-5-2.6-7.2c-2.4-4.7-5.8-8.5-8.5-11.3c-1.7-1.7-3.1-3-4-3.8c-0.8-1-2-1.8-3.4-2.1l-1.4-0.3
			c-3.3,2.9-7.7,4.7-12.3,4.7c-1.3,0-2.5-0.1-3.8-0.4c-4.9-1-9.1-3.9-11.9-8.1c-0.4-0.6-0.8-1.3-1.1-2c-0.1,0-0.2,0-0.3,0
			c-2.7,0.1-10.6,1-18.3,8c-4.1,3.8-8,9.3-10.8,16.9c-2.8,7.6-4.5,17.3-4.5,29.8c0,2,0,4,0.1,6.1c0.1,3.3,2.9,5.9,6.1,5.9
			c0.1,0,0.2,0,0.3,0c3.4-0.1,6-3,5.9-6.4c-0.1-1.9-0.1-3.8-0.1-5.6c0-11.3,1.6-19.6,3.7-25.5c2.8-7.6,6.5-11.5,9.7-13.7
			c-3.1,12.6-7.8,32.9-7.8,40.9c0,0.4,0,0.7,0.1,1.1v77.3c0,5.3,4.2,9.5,9.5,9.5c5.2,0,9.5-4.3,9.5-9.5v-61c2.4,3.5,7,5,11.1,3.5
			l16.1-5.9L79.3,197.3z"/>
		<rect x="60" y="208.3" class="st3" width="56.2" height="31.4"/>
		<path class="st3" d="M39.9,83.7c1.9-9.4,11-15.4,20.3-13.5c9.3,1.9,15.4,11.1,13.5,20.4s-11,15.4-20.3,13.5
			C44.1,102.2,38,93.1,39.9,83.7z"/>
	</g>
	<text transform="matrix(0.9961 0 0 1 37.9766 155.7953)" class="st4 st1 st2">Name Surname</text>
</g>
</svg>
