<?xml version="1.0" encoding="utf-8"?>
<!-- Generator: Adobe Illustrator 19.0.0, SVG Export Plug-In . SVG Version: 6.00 Build 0)  -->
<svg version="1.1" id="Слой_1" xmlns="http://www.w3.org/2000/svg" xmlns:xlink="http://www.w3.org/1999/xlink" x="0px" y="0px"
	 viewBox="0 0 302.9 39.8" style="enable-background:new 0 0 302.9 39.8;" xml:space="preserve">
<style type="text/css">
	.st0{fill:#E84239;}
	.st1{fill:#3E59A5;}
	.st2{fill:#3E59A5;stroke:#374093;stroke-miterlimit:10;}
</style>
<path class="st0" d="M302.9,36.4l-9.6-9.6c0.8-1,1.4-2.2,1.9-3.4c3.6-8.6-0.4-18.5-9-22.1C284.3,0.4,282,0,279.8,0l0,0
	c-9.3,0-16.8,7.5-16.8,16.9c0,6.8,4.1,12.9,10.3,15.5c5.8,2.4,12.1,1.4,16.8-2.2l9.5,9.5L302.9,36.4z M267.7,16.9
	c0-6.7,5.4-12.1,12.1-12.1c6.7,0,12.1,5.4,12.1,12.1s-5.4,12.1-12.1,12.1C273.1,28.9,267.7,23.5,267.7,16.9z"/>
<g id="_x23_020201ff_3_">
	<path class="st1" d="M103.4,3.9c1.2-1.1,2.8-1.5,4.4-1.5c1.7,0,3.3,0,5,0c0,1.8,0,3.5,0,5.3c-1.1,0-2.1,0-3.2,0
		c-0.7,0-1.4,0.5-1.5,1.1c0,1.2,0,2.3,0,3.5c1.6,0,3.1,0,4.7,0c-0.1,1.7-0.3,3.4-0.6,5.1c-1.4,0-2.8,0-4.2,0c0,5,0,10,0,15
		c-2.1,0-4.1,0-6.2,0c0-5,0-10,0-15c-1,0-2,0-3,0c0-1.7,0-3.4,0-5c1,0,2,0,3,0c0-1.6,0-3.3,0-4.9C102,6.1,102.5,4.8,103.4,3.9z"/>
</g>
<path class="st1" d="M194.4,26.8v-3.5c0-0.8-0.2-1.1-0.7-1.1c-0.3,0-0.5,0.1-0.7,0.4v5.1c0.2,0.2,0.5,0.4,0.7,0.4
	C194.2,27.9,194.4,27.5,194.4,26.8L194.4,26.8z M198.6,24h1.5v-0.8c0-0.8-0.2-1.2-0.7-1.2c-0.5,0-0.7,0.4-0.7,1.2V24z M185.7,18v1.6
	h-1.8v9.5h-1.7v-9.5h-1.8V18H185.7L185.7,18z M190.2,20.8v8.3h-1.5v-0.9c-0.6,0.7-1.2,1-1.7,1c-0.5,0-0.8-0.2-0.9-0.6
	c-0.1-0.2-0.1-0.6-0.1-1.2v-6.5h1.5v6.1c0,0.4,0,0.6,0,0.6c0,0.2,0.1,0.3,0.3,0.3c0.3,0,0.6-0.2,0.9-0.7v-6.3L190.2,20.8L190.2,20.8
	z M195.9,23.3v3.3c0,0.8-0.1,1.3-0.2,1.6c-0.2,0.6-0.6,0.9-1.2,0.9c-0.5,0-1-0.3-1.5-0.9v0.8h-1.5V18h1.5v3.6c0.5-0.6,1-0.9,1.5-0.9
	c0.6,0,1,0.3,1.2,0.9C195.9,22,195.9,22.5,195.9,23.3z M201.6,26.3v0.2c0,0.4,0,0.8,0,1c0,0.3-0.2,0.6-0.3,0.9
	c-0.4,0.6-1,0.9-1.8,0.9c-0.8,0-1.4-0.3-1.8-0.9c-0.3-0.4-0.5-1.1-0.5-1.9v-2.9c0-0.9,0.2-1.5,0.5-1.9c0.4-0.6,1-0.9,1.8-0.9
	s1.4,0.3,1.8,0.9c0.3,0.4,0.5,1.1,0.5,1.9v1.7h-3v1.5c0,0.8,0.3,1.2,0.8,1.2c0.4,0,0.6-0.2,0.7-0.6c0,0,0-0.1,0-0.2
	c0-0.1,0-0.2,0-0.4v-0.5L201.6,26.3L201.6,26.3z M191.4,7.7v3.5c0,0.8-0.2,1.2-0.7,1.2s-0.7-0.4-0.7-1.2V7.7c0-0.8,0.2-1.2,0.7-1.2
	S191.4,6.9,191.4,7.7z M203.4,23.8c0-2.7-0.1-4.6-0.4-5.9c-0.2-0.7-0.5-1.2-1-1.7c-0.5-0.4-1.1-0.7-1.7-0.8c-2-0.2-5.1-0.3-9.3-0.3
	c-4.1,0-7.2,0.1-9.3,0.3c-0.7,0.1-1.2,0.3-1.7,0.8c-0.5,0.4-0.8,1-1,1.7c-0.3,1.3-0.5,3.3-0.5,5.9c0,2.6,0.2,4.6,0.5,5.9
	c0.2,0.6,0.5,1.2,1,1.6c0.5,0.5,1.1,0.7,1.7,0.8c2.1,0.2,5.2,0.3,9.3,0.3c4.1,0,7.2-0.1,9.3-0.3c0.6-0.1,1.2-0.3,1.7-0.8
	c0.5-0.5,0.8-1,1-1.6C203.3,28.4,203.4,26.4,203.4,23.8z M186.4,9.1l2-6.7h-1.7l-1.2,4.4l-1.2-4.4h-1.8l0.5,1.6c0,0,0.2,0.5,0.5,1.6
	c0.5,1.5,0.9,2.7,1,3.6v4.5h1.7V9.1L186.4,9.1z M192.9,10.9V8c0-0.9-0.2-1.5-0.5-2c-0.4-0.6-1-0.9-1.8-0.9c-0.8,0-1.4,0.3-1.8,0.9
	c-0.3,0.4-0.5,1.1-0.5,2v2.9c0,0.9,0.2,1.5,0.5,2c0.4,0.6,1,0.9,1.8,0.9c0.7,0,1.3-0.3,1.8-0.9C192.7,12.5,192.9,11.8,192.9,10.9z
	 M197,13.6h1.5V5.3H197v6.4c-0.3,0.5-0.6,0.7-0.9,0.7c-0.2,0-0.3-0.1-0.4-0.4c0,0,0-0.2,0-0.6V5.3h-1.5v6.6c0,0.6,0,1,0.1,1.2
	c0.2,0.4,0.5,0.6,1,0.6c0.5,0,1.1-0.3,1.7-1L197,13.6L197,13.6z"/>
<line class="st2" x1="63.2" y1="4.1" x2="63.2" y2="30.7"/>
<line class="st2" x1="148.4" y1="4.1" x2="148.4" y2="30.7"/>
<line class="st2" x1="233.6" y1="4.1" x2="233.6" y2="30.7"/>
<g>
	<g id="XMLID_27_">
		<path id="XMLID_30_" class="st1" d="M15,14.4v5.9c0,0,5.8,0,8.1,0c-1.3,3.9-3.2,5.9-8.1,5.9c-4.9,0-8.8-4-8.8-8.9s3.8-8.9,8.8-8.9
			c2.6,0,4.3,0.9,5.8,2.2c1.2-1.2,1.1-1.4,4.3-4.4C22.4,3.9,18.9,2.4,15,2.4c-8.3,0-15,6.7-15,15s6.7,15,15,15
			c12.4,0,15.4-10.8,14.4-18C26.5,14.4,15,14.4,15,14.4z M42,14.7V9.5h-3.7v5.2H33v3.7h5.3v5.3H42v-5.3h5.2v-3.7H42z"/>
	</g>
</g>
</svg>
